<svg xmlns="http://www.w3.org/2000/svg" width="24" height="24" fill="none" viewBox="0 0 24 24"><path fill="#C7A05B" d="M12 24C18.6274 24 24 18.6274 24 12C24 5.37258 18.6274 0 12 0C5.37258 0 0 5.37258 0 12C0 18.6274 5.37258 24 12 24Z"/><path stroke="#000" stroke-opacity=".097" d="M23.5 12C23.5 18.3513 18.3513 23.5 12 23.5C5.64873 23.5 0.5 18.3513 0.5 12C0.5 5.64873 5.64873 0.5 12 0.5C18.3513 0.5 23.5 5.64873 23.5 12Z"/><path stroke="#fff" stroke-miterlimit="10" d="M6.2771 7L3.66425 10.883L12.0109 19.5489L20.3357 10.883L17.8027 7H6.2771Z"/><path stroke="#fff" stroke-miterlimit="10" d="M6.2771 7L15.2406 16.1813"/><path stroke="#fff" stroke-miterlimit="10" d="M12.0399 12.9009L8.76654 16.1742L11.9963 19.5491L15.2406 16.1815L12.0399 12.9009Z"/><path stroke="#fff" stroke-linecap="round" stroke-linejoin="round" stroke-miterlimit="10" d="M17.8027 7L14.7253 9.99026L17.9551 13.3579L20.3357 10.883L17.8027 7Z"/><path stroke="#fff" stroke-linecap="round" stroke-linejoin="round" stroke-miterlimit="10" d="M17.9551 13.3579L11.8585 7L9.08594 9.88139"/></svg>