<svg xmlns="http://www.w3.org/2000/svg" width="24" height="24" fill="none" viewBox="0 0 24 24"><path fill="url(#paint0_linear)" fill-rule="evenodd" d="M6.10352e-05 12C6.10352e-05 5.37259 5.37265 0 12.0001 0C18.6275 0 24.0001 5.37259 24.0001 12C24.0001 18.6274 18.6275 24 12.0001 24C5.37265 24 6.10352e-05 18.6274 6.10352e-05 12Z" clip-rule="evenodd"/><path stroke="#000" stroke-opacity=".097" d="M23.5001 12C23.5001 18.3513 18.3513 23.5 12.0001 23.5C5.64879 23.5 0.500061 18.3513 0.500061 12C0.500061 5.64873 5.64879 0.5 12.0001 0.5C18.3513 0.5 23.5001 5.64873 23.5001 12Z"/><path fill="#fff" d="M11.7611 3L6 13.0354H9.59292L11.7611 9.44248L14.177 13.7168H9.9646L8.04425 17H20L11.7611 3Z"/><defs><linearGradient id="paint0_linear" x1="12" x2="12" y1="0" y2="24" gradientUnits="userSpaceOnUse"><stop stop-color="#D200D2"/><stop offset="1" stop-color="#260C81"/></linearGradient></defs></svg>