<svg xmlns="http://www.w3.org/2000/svg" width="24" height="24" fill="none" viewBox="0 0 24 24"><path fill="#FF4339" d="M12 24C18.6274 24 24 18.6274 24 12C24 5.37258 18.6274 0 12 0C5.37258 0 0 5.37258 0 12C0 18.6274 5.37258 24 12 24Z"/><path stroke="#000" stroke-opacity=".097" d="M23.5 12C23.5 18.3513 18.3513 23.5 12 23.5C5.64873 23.5 0.5 18.3513 0.5 12C0.5 5.64873 5.64873 0.5 12 0.5C18.3513 0.5 23.5 5.64873 23.5 12Z"/><path fill="#fff" d="M11.7586 10.8208H11.6939C10.8208 10.8208 10.1417 11.5322 10.1417 12.4377V14.184L11.7263 12.9875L13.3108 14.184V12.4377C13.3108 11.5646 12.5994 10.8532 11.7586 10.8208Z"/><path fill="#fff" d="M5 5V18L9.04228 14.9925V11.5647L8.2985 10.9826L11.7263 8.39552L15.1542 10.9826L14.4105 11.5647V14.9925L18.4527 18V5H5Z"/></svg>