<svg xmlns="http://www.w3.org/2000/svg" width="24" height="24" fill="none" viewBox="0 0 24 24"><path fill="#F5E800" d="M12 24C18.6274 24 24 18.6274 24 12C24 5.37258 18.6274 0 12 0C5.37258 0 0 5.37258 0 12C0 18.6274 5.37258 24 12 24Z"/><path stroke="#000" stroke-opacity=".097" d="M23.5 12C23.5 18.3513 18.3513 23.5 12 23.5C5.64873 23.5 0.5 18.3513 0.5 12C0.5 5.64873 5.64873 0.5 12 0.5C18.3513 0.5 23.5 5.64873 23.5 12Z"/><path fill="#FF284C" d="M18.3692 18.3808H7.56372L4 14.5871L7.33712 11.2495H10.211L6.98905 14.4724L8.82829 16.4263H16.5299L18.3692 18.3808Z"/><path fill="#000" d="M8.69242 14.1396L12.4856 10.3459H8.22865L9.72318 8.85139H13.8654L14.7809 7.93537H8.44517L7.19789 6.20752H19L9.89265 15.4397L8.69242 14.1396Z"/><path fill="#000" d="M11.0122 15.6334L16.1449 10.3457H18.3596L13.346 15.6334H11.0122Z"/></svg>