<svg xmlns="http://www.w3.org/2000/svg" width="24" height="24" fill="none" viewBox="0 0 24 24"><path fill="#0066CD" d="M12 24C18.6274 24 24 18.6274 24 12C24 5.37258 18.6274 0 12 0C5.37258 0 0 5.37258 0 12C0 18.6274 5.37258 24 12 24Z"/><path stroke="#000" stroke-opacity=".097" d="M23.5 12C23.5 18.3513 18.3513 23.5 12 23.5C5.64873 23.5 0.5 18.3513 0.5 12C0.5 5.64873 5.64873 0.5 12 0.5C18.3513 0.5 23.5 5.64873 23.5 12Z"/><path fill="#fff" d="M5.67499 20.6156C5.90768 20.4993 8.81633 18.5214 8.81633 18.5214V11.8896L5.67499 14.1607V20.6156Z"/><path fill="#fff" d="M10.2125 17.8231C10.4452 17.7067 13.3538 15.7288 13.3538 15.7288V2L10.2125 4.27108V17.8231Z"/><path fill="#fff" d="M17.775 18.5209C17.5423 18.4046 14.6336 16.4267 14.6336 16.4267V8.51514L17.775 10.7862V18.5209Z"/></svg>