<svg xmlns="http://www.w3.org/2000/svg" width="24" height="24" fill="none" viewBox="0 0 24 24"><path fill="#080B27" d="M12 24C18.6274 24 24 18.6274 24 12C24 5.37258 18.6274 0 12 0C5.37258 0 0 5.37258 0 12C0 18.6274 5.37258 24 12 24Z"/><path stroke="#fff" stroke-opacity=".3" d="M23.5 12C23.5 18.3513 18.3513 23.5 12 23.5C5.64873 23.5 0.5 18.3513 0.5 12C0.5 5.64873 5.64873 0.5 12 0.5C18.3513 0.5 23.5 5.64873 23.5 12Z"/><path fill="#8B1DCD" d="M12.0001 4.14111L18.9478 8.10583V16.0353L12.0001 20L5.05237 16.0353V8.10583L12.0001 4.14111Z"/><path stroke="#530677" stroke-width=".453" d="M6.48724 8.9174L12.0001 5.76202L17.5129 8.9174V15.2248L12.0001 18.3802L6.48724 15.2248V8.9174Z"/><g filter="url(#filter0_f)"><circle cx="13.133" cy="12.675" r="2.492" fill="#FDE77F"/></g><g filter="url(#filter1_f)"><circle cx="10.716" cy="10.56" r="1.435" fill="#FDE77F"/></g><g filter="url(#filter2_f)"><circle cx="10.112" cy="13.43" r=".68" fill="#FDE77F"/></g><g filter="url(#filter3_f)"><circle cx="8.602" cy="11.467" r=".68" fill="#FDE77F"/></g><g filter="url(#filter4_f)"><circle cx="15.549" cy="10.41" r=".68" fill="#FDE77F"/></g><g filter="url(#filter5_f)"><circle cx="12.151" cy="15.318" r=".453" fill="#FDE77F"/></g><g filter="url(#filter6_f)"><circle cx="14.114" cy="14.714" r=".453" fill="#FDE77F"/></g><g filter="url(#filter7_f)"><circle cx="11.547" cy="8.069" r=".604" fill="#FDE77F"/></g><defs><filter id="filter0_f" width="8.911" height="8.911" x="8.677" y="8.22" color-interpolation-filters="sRGB" filterUnits="userSpaceOnUse"><feFlood flood-opacity="0" result="BackgroundImageFix"/><feBlend in="SourceGraphic" in2="BackgroundImageFix" mode="normal" result="shape"/><feGaussianBlur result="effect1_foregroundBlur" stdDeviation=".982"/></filter><filter id="filter1_f" width="6.797" height="6.797" x="7.318" y="7.162" color-interpolation-filters="sRGB" filterUnits="userSpaceOnUse"><feFlood flood-opacity="0" result="BackgroundImageFix"/><feBlend in="SourceGraphic" in2="BackgroundImageFix" mode="normal" result="shape"/><feGaussianBlur result="effect1_foregroundBlur" stdDeviation=".982"/></filter><filter id="filter2_f" width="2.266" height="2.266" x="8.979" y="12.297" color-interpolation-filters="sRGB" filterUnits="userSpaceOnUse"><feFlood flood-opacity="0" result="BackgroundImageFix"/><feBlend in="SourceGraphic" in2="BackgroundImageFix" mode="normal" result="shape"/><feGaussianBlur result="effect1_foregroundBlur" stdDeviation=".227"/></filter><filter id="filter3_f" width="2.266" height="2.266" x="7.469" y="10.334" color-interpolation-filters="sRGB" filterUnits="userSpaceOnUse"><feFlood flood-opacity="0" result="BackgroundImageFix"/><feBlend in="SourceGraphic" in2="BackgroundImageFix" mode="normal" result="shape"/><feGaussianBlur result="effect1_foregroundBlur" stdDeviation=".227"/></filter><filter id="filter4_f" width="2.266" height="2.266" x="14.417" y="9.277" color-interpolation-filters="sRGB" filterUnits="userSpaceOnUse"><feFlood flood-opacity="0" result="BackgroundImageFix"/><feBlend in="SourceGraphic" in2="BackgroundImageFix" mode="normal" result="shape"/><feGaussianBlur result="effect1_foregroundBlur" stdDeviation=".227"/></filter><filter id="filter5_f" width="1.812" height="1.812" x="11.245" y="14.412" color-interpolation-filters="sRGB" filterUnits="userSpaceOnUse"><feFlood flood-opacity="0" result="BackgroundImageFix"/><feBlend in="SourceGraphic" in2="BackgroundImageFix" mode="normal" result="shape"/><feGaussianBlur result="effect1_foregroundBlur" stdDeviation=".227"/></filter><filter id="filter6_f" width="1.812" height="1.812" x="13.208" y="13.808" color-interpolation-filters="sRGB" filterUnits="userSpaceOnUse"><feFlood flood-opacity="0" result="BackgroundImageFix"/><feBlend in="SourceGraphic" in2="BackgroundImageFix" mode="normal" result="shape"/><feGaussianBlur result="effect1_foregroundBlur" stdDeviation=".227"/></filter><filter id="filter7_f" width="2.115" height="2.115" x="10.49" y="7.011" color-interpolation-filters="sRGB" filterUnits="userSpaceOnUse"><feFlood flood-opacity="0" result="BackgroundImageFix"/><feBlend in="SourceGraphic" in2="BackgroundImageFix" mode="normal" result="shape"/><feGaussianBlur result="effect1_foregroundBlur" stdDeviation=".227"/></filter></defs></svg>