<svg xmlns="http://www.w3.org/2000/svg" width="24" height="24" fill="none" viewBox="0 0 24 24"><path fill="#2468E4" fill-rule="evenodd" d="M0 12C0 5.37259 5.37259 0 12 0C18.6274 0 24 5.37259 24 12C24 18.6274 18.6274 24 12 24C5.37259 24 0 18.6274 0 12Z" clip-rule="evenodd"/><path fill="#fff" fill-rule="evenodd" d="M17 13.5H9.72727C8.11909 13.5 7 12.1565 7 10.5H14.7273C15.8805 10.5 17 11.8435 17 13.5ZM14.7273 5H9.72727C8.11955 5 7 6.24 7 8V9.5H9.72727V8H17C17 6.24 15.8805 5 14.7273 5ZM14.2727 14.5V16H7C7 17.76 8.11955 19 9.72727 19H14.7273C15.8805 19 17 17.76 17 16V14.5H14.2727Z" clip-rule="evenodd"/><path stroke="#fff" stroke-opacity=".3" d="M23.5 12C23.5 18.3513 18.3513 23.5 12 23.5C5.64873 23.5 0.5 18.3513 0.5 12C0.5 5.64873 5.64873 0.5 12 0.5C18.3513 0.5 23.5 5.64873 23.5 12Z"/></svg>