<svg xmlns="http://www.w3.org/2000/svg" width="24" height="24" fill="none" viewBox="0 0 24 24"><path fill="#00B3CC" d="M12 24C18.6274 24 24 18.6274 24 12C24 5.37258 18.6274 0 12 0C5.37258 0 0 5.37258 0 12C0 18.6274 5.37258 24 12 24Z"/><path stroke="#000" stroke-opacity=".097" d="M23.5 12C23.5 18.3513 18.3513 23.5 12 23.5C5.64873 23.5 0.5 18.3513 0.5 12C0.5 5.64873 5.64873 0.5 12 0.5C18.3513 0.5 23.5 5.64873 23.5 12Z"/><g clip-path="url(#clip0)"><path fill="#fff" d="M8.43987 11.4116H5V14.584H8.43987V11.4116Z" opacity=".8"/><path fill="#fff" d="M16.961 11.4116H9.28494V14.584H16.961V11.4116Z" opacity=".8"/><path fill="#fff" d="M20.0054 7H9.28494V10.1724H20.0054V7Z"/><path fill="#fff" d="M14.6425 15.8276H9.28494V19H14.6425V15.8276Z" opacity=".7"/></g><defs><clipPath id="clip0"><rect width="15" height="12" fill="#fff" transform="translate(5 7)"/></clipPath></defs></svg>