<svg xmlns="http://www.w3.org/2000/svg" width="24" height="24" fill="none" viewBox="0 0 24 24"><path fill="#080B27" d="M12 24C18.6274 24 24 18.6274 24 12C24 5.37258 18.6274 0 12 0C5.37258 0 0 5.37258 0 12C0 18.6274 5.37258 24 12 24Z"/><path stroke="#fff" stroke-opacity=".3" d="M23.5 12C23.5 18.3513 18.3513 23.5 12 23.5C5.64873 23.5 0.5 18.3513 0.5 12C0.5 5.64873 5.64873 0.5 12 0.5C18.3513 0.5 23.5 5.64873 23.5 12Z"/><path fill="#C9CED6" d="M10.5777 7.7962L10.9197 11.176L12.1857 7.32324L10.5777 7.7962Z"/><path fill="#E1E4E8" d="M8.49615 5.70361L10.5771 7.79553L12.1852 7.32257L8.49615 5.70361Z"/><path fill="#F1F2F4" d="M10.1224 10.9389L10.9191 11.1753L10.5771 7.79553L8.49615 5.70361L10.1224 10.9389Z"/><path fill="#C9CED6" d="M6.79407 6.05615L8.68953 12.3938L6.75405 15.7008L4 9.47598L6.79407 6.05615Z"/><path fill="#F1F2F4" d="M14.154 7.17676L15.9986 10.0181L12.6406 11.6625L14.154 7.17676Z"/><path fill="#F7F8F9" d="M18.0725 6.16602L15.9988 10.0188L14.1542 7.17741L18.0725 6.16602Z"/><path fill="#E1E4E8" d="M19.9891 10.3971L15.998 10.0188L18.0718 6.16602L19.9891 10.3971Z"/><path fill="#C9CED6" d="M17.7771 13.4124C17.6971 13.2705 15.998 10.0181 15.998 10.0181L20 10.3819L17.7771 13.4124Z"/><path fill="#E1E4E8" d="M12.6406 11.6625L17.7776 13.4124L15.9986 10.0181L12.6406 11.6625Z"/><path fill="#A83C3B" d="M10.5118 12.7251L13.1203 19.954L16.5438 14.8461L10.5118 12.7251Z"/><path fill="#C73C38" d="M11.2907 20.2965L6.75403 15.7016L8.68951 12.3945L11.2907 20.2965Z"/><path fill="#F1F2F4" d="M12.8075 14.9443L13.1203 19.954L10.5118 12.7251L12.8075 14.9443Z"/><path fill="#E1E4E8" d="M16.5438 14.8461L12.8075 14.9443L10.5118 12.7251L16.5438 14.8461Z"/><path fill="#C9CED6" d="M13.1208 19.9541L12.8079 14.9444L16.5442 14.8462L13.1208 19.9541Z"/><path fill="#E1E4E8" d="M4 9.47597L8.68953 12.3938L6.79407 6.05615L4 9.47597Z"/><path fill="#DB4545" d="M8.68951 12.3945L6.75403 15.7016L9.98829 16.3382L8.68951 12.3945Z"/><path fill="#C9CED6" d="M11.2907 20.2965L6.75403 15.7016L8.68951 12.3945L11.2907 20.2965Z"/><path fill="#E1E4E8" d="M8.68951 12.3945L6.75403 15.7016L9.98829 16.3382L8.68951 12.3945Z"/></svg>