<svg xmlns="http://www.w3.org/2000/svg" width="24" height="24" fill="none" viewBox="0 0 24 24"><path fill="#000" d="M12 24C18.6274 24 24 18.6274 24 12C24 5.37258 18.6274 0 12 0C5.37258 0 0 5.37258 0 12C0 18.6274 5.37258 24 12 24Z"/><path stroke="#35A936" stroke-width=".5" d="M8.69998 18H6.59998L12 8.84998L17.4 18H15.45"/><path stroke="#35A936" stroke-width=".5" d="M17.4 6L12 15.15L6.59998 6H17.4Z"/><line x1="6.6" x2="17.4" y1="11.9" y2="11.9" stroke="#35A936" stroke-width=".5"/><path stroke="#000" stroke-opacity=".097" d="M23.5 12C23.5 18.3513 18.3513 23.5 12 23.5C5.64873 23.5 0.5 18.3513 0.5 12C0.5 5.64873 5.64873 0.5 12 0.5C18.3513 0.5 23.5 5.64873 23.5 12Z"/></svg>