<svg xmlns="http://www.w3.org/2000/svg" width="24" height="24" fill="none" viewBox="0 0 24 24"><path fill="#7D4476" d="M12 24C18.6274 24 24 18.6274 24 12C24 5.37258 18.6274 0 12 0C5.37258 0 0 5.37258 0 12C0 18.6274 5.37258 24 12 24Z"/><path stroke="#000" stroke-opacity=".097" d="M23.5 12C23.5 18.3513 18.3513 23.5 12 23.5C5.64873 23.5 0.5 18.3513 0.5 12C0.5 5.64873 5.64873 0.5 12 0.5C18.3513 0.5 23.5 5.64873 23.5 12Z"/><path fill="#fff" fill-rule="evenodd" d="M11.9048 16.6105L19 12L11.9056 7.38867L11.9048 16.6105Z" clip-rule="evenodd" opacity=".7"/><path fill="#fff" fill-rule="evenodd" d="M7.96116 5.71436L4.81042 11.9998L11.9048 7.38843L7.96116 5.71436Z" clip-rule="evenodd" opacity=".2"/><path fill="#fff" fill-rule="evenodd" d="M15.8501 5.71436L11.9048 7.38843L18.9992 11.9998L15.8501 5.71436Z" clip-rule="evenodd" opacity=".5"/><path fill="#D8C7D6" fill-rule="evenodd" d="M7.96118 5.71436L11.9048 7.38843L15.85 5.71436H7.96118Z" clip-rule="evenodd"/><path fill="#fff" fill-rule="evenodd" d="M7.96118 18.2852H15.85L11.9048 16.6104L7.96118 18.2852Z" clip-rule="evenodd"/><path fill="#fff" fill-rule="evenodd" d="M11.9048 16.6105L15.8501 18.2854L19 12L11.9048 16.6105Z" clip-rule="evenodd" opacity=".9"/><path fill="#fff" fill-rule="evenodd" d="M7.96116 18.2854L11.9056 16.6105L4.81042 12L7.96116 18.2854Z" clip-rule="evenodd" opacity=".4"/><path fill="#fff" fill-rule="evenodd" d="M4.81042 12.0002L11.9048 16.6107V7.38965L4.81042 12.0002Z" clip-rule="evenodd" opacity=".6"/></svg>