<svg xmlns="http://www.w3.org/2000/svg" width="24" height="24" fill="none" viewBox="0 0 24 24"><path fill="url(#paint0_linear)" d="M12 24C18.6274 24 24 18.6274 24 12C24 5.37258 18.6274 0 12 0C5.37258 0 0 5.37258 0 12C0 18.6274 5.37258 24 12 24Z"/><path fill="#fff" d="M19 14.8391L12.8455 13.8876L12.7308 13.8621L18.6868 12.9922L17.3364 12.7968L18.3822 12.6439L11.7227 11.667L16.0083 11.0417L16.0066 11.0282L17.5897 10.7971L15.945 10.5575L15.2176 5L7.77433 8.08374L7.57066 10.3978L10.3039 10.7954L5 11.667L10.3775 12.5335L9.27531 12.6949L11.3222 12.9922L5.47751 13.8621L12.1147 14.8391L7.11198 15.568L6.80905 19H17.0523L16.5235 15.2231L19 14.8391Z"/><path stroke="#fff" stroke-opacity=".3" d="M23.5 12C23.5 18.3513 18.3513 23.5 12 23.5C5.64873 23.5 0.5 18.3513 0.5 12C0.5 5.64873 5.64873 0.5 12 0.5C18.3513 0.5 23.5 5.64873 23.5 12Z"/><defs><linearGradient id="paint0_linear" x1="5.781" x2="19.699" y1="25.535" y2="1.252" gradientUnits="userSpaceOnUse"><stop offset=".05" stop-color="#7E0AE5"/><stop offset=".38" stop-color="#AC11EE"/><stop offset=".733" stop-color="#D818F7"/><stop offset=".912" stop-color="#E91BFA"/></linearGradient></defs></svg>