<svg xmlns="http://www.w3.org/2000/svg" width="24" height="24" fill="none" viewBox="0 0 24 24"><path fill="#080B27" d="M12 24C18.6274 24 24 18.6274 24 12C24 5.37258 18.6274 0 12 0C5.37258 0 0 5.37258 0 12C0 18.6274 5.37258 24 12 24Z"/><circle cx="9.948" cy="13.534" r="4.914" stroke="url(#paint0_linear)" stroke-width="2.069"/><circle cx="17.19" cy="7.327" r="1.81" fill="#08DEFC"/><path stroke="#fff" stroke-opacity=".3" d="M23.5 12C23.5 18.3513 18.3513 23.5 12 23.5C5.64873 23.5 0.5 18.3513 0.5 12C0.5 5.64873 5.64873 0.5 12 0.5C18.3513 0.5 23.5 5.64873 23.5 12Z"/><defs><linearGradient id="paint0_linear" x1="10" x2="10" y1="6.5" y2="19.5" gradientUnits="userSpaceOnUse"><stop stop-color="#F33664"/><stop offset=".765" stop-color="#F63766" stop-opacity=".132"/><stop offset="1" stop-color="#F63766" stop-opacity="0"/></linearGradient></defs></svg>