<svg xmlns="http://www.w3.org/2000/svg" width="24" height="24" fill="none" viewBox="0 0 24 24"><path fill="url(#paint0_linear)" d="M12 24C18.6274 24 24 18.6274 24 12C24 5.37258 18.6274 0 12 0C5.37258 0 0 5.37258 0 12C0 18.6274 5.37258 24 12 24Z"/><path fill="#fff" d="M7.95604 5.64795L6.66772 6.93725V12.0852L7.95604 13.3717H13.1132V15.9445H10.536V14.658H6.66772V17.2333L7.95604 18.5196H15.6917L16.98 17.2333V12.0852L15.6917 10.796H10.536V8.22314H13.1132V9.50957H16.9815V6.93725L15.6917 5.64795H7.95604Z"/><path stroke="#fff" stroke-opacity=".3" d="M23.5 12C23.5 18.3513 18.3513 23.5 12 23.5C5.64873 23.5 0.5 18.3513 0.5 12C0.5 5.64873 5.64873 0.5 12 0.5C18.3513 0.5 23.5 5.64873 23.5 12Z"/><defs><linearGradient id="paint0_linear" x1="4.488" x2="19.44" y1="4.848" y2="21.72" gradientUnits="userSpaceOnUse"><stop stop-color="#00ADEF"/><stop offset="1" stop-color="#0084FF"/></linearGradient></defs></svg>