<svg xmlns="http://www.w3.org/2000/svg" width="24" height="24" fill="none" viewBox="0 0 24 24"><path fill="#000" d="M12 24C18.6274 24 24 18.6274 24 12C24 5.37258 18.6274 0 12 0C5.37258 0 0 5.37258 0 12C0 18.6274 5.37258 24 12 24Z"/><path stroke="#000" stroke-opacity=".097" d="M23.5 12C23.5 18.3513 18.3513 23.5 12 23.5C5.64873 23.5 0.5 18.3513 0.5 12C0.5 5.64873 5.64873 0.5 12 0.5C18.3513 0.5 23.5 5.64873 23.5 12Z"/><path fill="#FEFEFE" d="M3.44025 11.6041L8.21955 6L12.0022 9.01426L8.72998 12.9419L11.5428 15.2443L10.1807 16.9502L3.44025 11.6041Z"/><path fill="#FEFEFE" d="M12.0022 15.6714L10.6938 17.294L12.8565 19L16.4671 14.7606L13.88 12.7699L16.1555 9.98135L16.6686 10.3521L15.1588 12.23L17.2919 13.909L20.4512 10.1801L15.3576 6.17188L10.0679 12.5416L13.1977 15.2442L12.5421 16.0555L12.0022 15.6714Z"/></svg>