<svg xmlns="http://www.w3.org/2000/svg" width="24" height="24" fill="none" viewBox="0 0 24 24"><path fill="#080B27" d="M12 24C18.6274 24 24 18.6274 24 12C24 5.37258 18.6274 0 12 0C5.37258 0 0 5.37258 0 12C0 18.6274 5.37258 24 12 24Z"/><path stroke="#fff" stroke-opacity=".3" d="M23.5 12C23.5 18.3513 18.3513 23.5 12 23.5C5.64873 23.5 0.5 18.3513 0.5 12C0.5 5.64873 5.64873 0.5 12 0.5C18.3513 0.5 23.5 5.64873 23.5 12Z"/><path fill="#FEFEFE" stroke="#9B9EEC" stroke-linecap="round" stroke-linejoin="round" stroke-miterlimit="10" stroke-width=".584" d="M10.0247 14.0045L18 6L7.65845 8.92135L10.0247 14.0045Z"/><path fill="#FEFEFE" stroke="#9B9EEC" stroke-linecap="round" stroke-linejoin="round" stroke-miterlimit="10" stroke-width=".584" d="M5 11.7845L10.0247 14.0048L8.30317 10.3066L5 11.7845Z"/><path fill="#FEFEFE" stroke="#9B9EEC" stroke-linecap="round" stroke-linejoin="round" stroke-miterlimit="10" stroke-width=".584" d="M10.0347 14.0144L18 6L15.1295 16.3559L10.0347 14.0144Z"/><path fill="#FEFEFE" stroke="#9B9EEC" stroke-linecap="round" stroke-linejoin="round" stroke-miterlimit="10" stroke-width=".584" d="M12.2797 19.0281L10.0347 14.0142L13.7413 15.7176L12.2797 19.0281Z"/></svg>