<svg xmlns="http://www.w3.org/2000/svg" width="24" height="24" fill="none" viewBox="0 0 24 24"><path fill="#00A7CA" d="M12 24C18.6274 24 24 18.6274 24 12C24 5.37258 18.6274 0 12 0C5.37258 0 0 5.37258 0 12C0 18.6274 5.37258 24 12 24Z"/><path fill="#fff" d="M6 6H11.9226L8.97511 8.94616L6 6Z"/><path fill="#fff" d="M17.9998 18.0001H12.0827L15.0302 15.054L17.9998 18.0001Z"/><path fill="#fff" d="M17.9998 6V8.26755L8.26859 17.9998H6V15.7323L15.7367 6H17.9998Z"/><path stroke="#000" stroke-opacity=".097" d="M23.5 12C23.5 18.3513 18.3513 23.5 12 23.5C5.64873 23.5 0.5 18.3513 0.5 12C0.5 5.64873 5.64873 0.5 12 0.5C18.3513 0.5 23.5 5.64873 23.5 12Z"/></svg>